<svg width="1437" height="780" viewBox="0 0 1437 780" fill="none" xmlns="http://www.w3.org/2000/svg">
<path d="M1321.66 1010.94L1192.06 1757.86C1128.51 2124.1 769.927 2371.19 391.14 2309.75L-381.366 2184.44C-760.153 2123 -1015.7 1776.3 -952.158 1410.06L-822.559 663.137C-759.012 296.897 -400.43 49.8089 -21.6434 111.251L750.863 236.557C1129.65 298 1385.2 644.705 1321.66 1010.94Z" fill="url(#paint0_radial_12418_41960)"/>
<path opacity="0.46" d="M893.85 1442.32L840.587 1582.77C708.365 1931.43 308.852 2110.44 -51.7518 1982.6L-197.016 1931.1C-557.619 1803.25 -742.76 1416.97 -610.538 1068.31L-557.275 927.862C-425.054 579.203 -25.5397 400.195 335.064 528.036L480.328 579.536C840.931 707.377 1026.07 1093.66 893.85 1442.32Z" fill="url(#paint1_radial_12418_41960)"/>
<path opacity="0.46" d="M412.665 1670.63L268.098 1735.41C52.4263 1832.04 -203.432 1741.33 -303.377 1532.81L-370.372 1393.03C-470.317 1184.5 -376.503 937.115 -160.831 840.48L-16.2642 775.705C199.408 679.07 455.266 769.777 555.212 978.305L622.206 1118.08C722.151 1326.61 628.336 1574 412.665 1670.63Z" fill="url(#paint2_radial_12418_41960)"/>
<defs>
<radialGradient id="paint0_radial_12418_41960" cx="0" cy="0" r="1" gradientUnits="userSpaceOnUse" gradientTransform="translate(184.749 1210.5) rotate(-132.754) scale(1234.51 1238.47)">
<stop offset="0.832516" stop-color="#5947EE" stop-opacity="0"/>
<stop offset="0.893423" stop-color="#5947EE" stop-opacity="0.5"/>
<stop offset="0.957317" stop-color="#FCD1CA"/>
<stop offset="0.975198" stop-color="#E6FF00"/>
</radialGradient>
<radialGradient id="paint1_radial_12418_41960" cx="0" cy="0" r="1" gradientUnits="userSpaceOnUse" gradientTransform="translate(141.656 1255.32) rotate(136.009) scale(813.724 813.221)">
<stop offset="0.781705" stop-color="#5947EE" stop-opacity="0"/>
<stop offset="0.798332" stop-color="#5947EE" stop-opacity="0"/>
<stop offset="0.826565" stop-color="#5947EE" stop-opacity="0"/>
<stop offset="0.893186" stop-color="#5947EE" stop-opacity="0"/>
<stop offset="1" stop-color="#FCC4BB"/>
</radialGradient>
<radialGradient id="paint2_radial_12418_41960" cx="0" cy="0" r="1" gradientUnits="userSpaceOnUse" gradientTransform="translate(125.917 1255.56) rotate(-179.958) scale(546.035 527.949)">
<stop offset="0.781705" stop-color="#5947EE" stop-opacity="0"/>
<stop offset="0.798332" stop-color="#5947EE" stop-opacity="0"/>
<stop offset="0.826565" stop-color="#5947EE" stop-opacity="0"/>
<stop offset="0.893186" stop-color="#5947EE" stop-opacity="0"/>
<stop offset="1" stop-color="#FCC4BB"/>
</radialGradient>
</defs>
</svg>
